<svg id="visual" viewBox="0 0 1000 200" width="1000" height="200" xmlns="http://www.w3.org/2000/svg" xmlns:xlink="http://www.w3.org/1999/xlink" version="1.1"><rect x="0" y="0" width="1000" height="200" fill="#dbe1e8"></rect><path d="M0 147L143 122L286 130L429 156L571 141L714 144L857 112L1000 135L1000 0L857 0L714 0L571 0L429 0L286 0L143 0L0 0Z" fill="#126180"></path><path d="M0 102L143 94L286 95L429 112L571 117L714 93L857 108L1000 79L1000 0L857 0L714 0L571 0L429 0L286 0L143 0L0 0Z" fill="#59849d"></path><path d="M0 78L143 58L286 78L429 89L571 107L714 72L857 60L1000 93L1000 0L857 0L714 0L571 0L429 0L286 0L143 0L0 0Z" fill="#8ea9ba"></path><path d="M0 48L143 58L286 56L429 41L571 65L714 75L857 51L1000 47L1000 0L857 0L714 0L571 0L429 0L286 0L143 0L0 0Z" fill="#c3d0d9"></path><path d="M0 46L143 48L286 31L429 35L571 36L714 32L857 17L1000 20L1000 0L857 0L714 0L571 0L429 0L286 0L143 0L0 0Z" fill="#f8f8f8"></path></svg>